HIERARCHY
ROOT Hips
{
	OFFSET 0.000000 0.000000 0.000000
	CHANNELS 6 Xposition Yposition Zposition Zrotation Xrotation Yrotation
	JOINT Spine1
	{
		OFFSET 0.000000 -0.000045 277.694702
		CHANNELS 6 Xposition Yposition Zposition Zrotation Xrotation Yrotation
		JOINT Neck
		{
			OFFSET 0.000000 -0.000036 221.388000
			CHANNELS 6 Xposition Yposition Zposition Zrotation Xrotation Yrotation
			JOINT Head
			{
				OFFSET 0.000000 -18.163622 140.768005
				CHANNELS 6 Xposition Yposition Zposition Zrotation Xrotation Yrotation
				End Site
				{
					OFFSET 0.000000 -0.000029 181.635559
				}
			}
		}
		JOINT LeftShoulder
		{
			OFFSET 36.576698 4.801211 178.758972
			CHANNELS 6 Xposition Yposition Zposition Zrotation Xrotation Yrotation
			JOINT LeftArm
			{
				OFFSET 130.515991 0.000000 0.000000
				CHANNELS 6 Xposition Yposition Zposition Zrotation Xrotation Yrotation
				JOINT LeftForeArm
				{
					OFFSET 255.920990 0.000000 0.000000
					CHANNELS 6 Xposition Yposition Zposition Zrotation Xrotation Yrotation
					JOINT LeftHand
					{
						OFFSET 237.844971 0.000000 0.000000
						CHANNELS 6 Xposition Yposition Zposition Zrotation Xrotation Yrotation
						End Site
						{
							OFFSET 136.226685 0.000000 0.000000
						}
					}
				}
			}
		}
		JOINT RightShoulder
		{
			OFFSET -36.072102 4.801211 178.758972
			CHANNELS 6 Xposition Yposition Zposition Zrotation Xrotation Yrotation
			JOINT RightArm
			{
				OFFSET -130.515991 0.000000 0.000000
				CHANNELS 6 Xposition Yposition Zposition Zrotation Xrotation Yrotation
				JOINT RightForeArm
				{
					OFFSET -255.921005 0.000000 0.000000
					CHANNELS 6 Xposition Yposition Zposition Zrotation Xrotation Yrotation
					JOINT RightHand
					{
						OFFSET -237.845032 0.000000 0.000000
						CHANNELS 6 Xposition Yposition Zposition Zrotation Xrotation Yrotation
						End Site
						{
							OFFSET -136.226685 0.000000 0.000000
						}
					}
				}
			}
		}
	}
	JOINT LeftUpLeg
	{
		OFFSET 90.818001 0.000000 0.000000
		CHANNELS 6 Xposition Yposition Zposition Zrotation Xrotation Yrotation
		JOINT LeftLeg
		{
			OFFSET 0.000000 0.000062 -381.949005
			CHANNELS 6 Xposition Yposition Zposition Zrotation Xrotation Yrotation
			JOINT LeftFoot
			{
				OFFSET 0.000000 0.000065 -400.430023
				CHANNELS 6 Xposition Yposition Zposition Zrotation Xrotation Yrotation
				JOINT LeftToeBase
				{
					OFFSET 0.000000 -136.226974 -59.031677
					CHANNELS 6 Xposition Yposition Zposition Zrotation Xrotation Yrotation
					End Site
					{
						OFFSET 0.000000 -36.327118 0.000000
					}
				}
			}
		}
	}
	JOINT RightUpLeg
	{
		OFFSET -90.818001 0.000000 0.000000
		CHANNELS 6 Xposition Yposition Zposition Zrotation Xrotation Yrotation
		JOINT RightLeg
		{
			OFFSET 0.000000 0.000062 -381.949005
			CHANNELS 6 Xposition Yposition Zposition Zrotation Xrotation Yrotation
			JOINT RightFoot
			{
				OFFSET 0.000000 0.000065 -400.430023
				CHANNELS 6 Xposition Yposition Zposition Zrotation Xrotation Yrotation
				JOINT RightToeBase
				{
					OFFSET 0.000000 -136.226974 -59.031677
					CHANNELS 6 Xposition Yposition Zposition Zrotation Xrotation Yrotation
					End Site
					{
						OFFSET 0.000000 -36.327118 0.000000
					}
				}
			}
		}
	}
}
MOTION
Frames: 7
Frame Time: 0.041667
-85.839066 -132.676971 718.112549 0.076755 16.975071 -0.338865 0.000010 -0.000043 277.694672 -4.807296 -13.890966 -4.845161 0.000002 -0.000041 221.387909 4.243549 5.276125 -3.286633 0.000008 -18.163630 140.767975 5.118353 2.870388 4.610318 36.576694 4.801207 178.758804 -0.185991 -7.002788 -22.049739 130.515991 -0.000036 0.000116 -7.712796 -13.090890 8.364031 255.920944 -0.000052 0.000111 -1.957724 -11.468877 -1.827799 237.844925 -0.000072 -0.000109 18.262630 -11.694651 -1.239638 -36.072102 4.801236 178.758789 -7.025165 -1.636910 16.521147 -130.516037 -0.000015 0.000103 19.062628 13.323487 -11.749830 -255.920975 -0.000060 -0.000138 79.349962 41.750447 43.150632 -237.845139 0.000054 0.000103 2.286562 7.667680 33.787877 90.818008 0.000008 -0.000040 13.588056 -39.402422 -23.878456 -0.000047 0.000086 -381.949066 11.055680 40.367603 9.947794 -0.000002 0.000041 -400.430115 18.201247 -2.688564 7.596400 0.000020 -136.226959 -59.031677 0.000002 -0.000000 0.000001 -90.817993 0.000010 -0.000046 9.489636 -29.625368 36.683262 -0.000006 0.000085 -381.949097 -11.983303 41.509296 -27.551048 0.000024 0.000082 -400.430023 -28.497595 -15.018741 -12.884985 0.000013 -136.226883 -59.031677 0.000003 0.000000 -0.000001 
-85.984406 -132.613998 718.093689 0.128590 16.985859 -0.254788 0.000006 -0.000028 277.694733 -4.862865 -13.882876 -4.889789 -0.000005 -0.000021 221.387970 4.230632 5.281258 -3.345305 0.000013 -18.163607 140.767975 5.113621 2.860358 4.643277 36.576672 4.801232 178.758850 -0.184556 -6.955958 -22.019104 130.515976 -0.000010 -0.000031 -7.640853 -13.186235 8.471974 255.921066 0.000038 0.000042 -2.459650 -11.788047 -2.286891 237.844940 0.000030 -0.000149 18.486363 -12.020334 -1.157189 -36.072144 4.801223 178.758926 -6.952259 -1.671907 16.523930 -130.515991 0.000000 -0.000128 19.302487 13.618188 -12.158120 -255.920990 -0.000097 0.000093 78.547824 41.507357 43.676290 -237.845139 -0.000172 -0.000000 2.315205 7.390554 33.717567 90.818008 0.000011 -0.000008 13.485355 -39.512217 -23.994084 -0.000009 0.000118 -381.948975 11.088493 40.451372 9.886278 0.000014 0.000062 -400.430023 18.138841 -2.680131 7.585133 0.000027 -136.226944 -59.031670 0.000002 -0.000002 -0.000001 -90.817993 -0.000005 -0.000004 9.434134 -29.674857 36.523538 -0.000006 0.000062 -381.949066 -11.884151 41.489124 -27.525015 -0.000040 0.000078 -400.429962 -28.668097 -15.019070 -12.868069 -0.000008 -136.227005 -59.031681 -0.000003 -0.000000 -0.000002 
-86.078285 -132.522766 718.068115 0.190821 17.007811 -0.157678 0.000002 -0.000043 277.694672 -4.910015 -13.888651 -4.925654 0.000008 -0.000021 221.388153 4.218958 5.278927 -3.396846 0.000032 -18.163551 140.767914 5.103156 2.852073 4.612129 36.576714 4.801228 178.759033 -0.170817 -6.897838 -21.994620 130.515900 -0.000036 -0.000122 -7.571036 -13.367819 8.596233 255.921066 -0.000020 -0.000137 -3.039255 -12.040164 -2.816324 237.844879 -0.000024 -0.000045 18.763950 -12.273347 -0.991696 -36.072113 4.801229 178.759048 -6.909062 -1.706668 16.517296 -130.516037 -0.000006 -0.000073 19.610887 13.870714 -12.627686 -255.920944 0.000023 0.000044 77.831256 41.183247 44.091036 -237.845093 -0.000029 -0.000018 2.252524 7.041230 33.745755 90.818008 -0.000011 -0.000013 13.288930 -39.618485 -24.184035 -0.000017 0.000082 -381.948944 11.043625 40.539799 9.937189 -0.000002 0.000068 -400.429993 18.171710 -2.690354 7.558959 0.000032 -136.226913 -59.031738 0.000004 -0.000001 0.000002 -90.818008 -0.000001 -0.000076 9.411821 -29.725007 36.382768 0.000032 0.000074 -381.949036 -11.827627 41.504980 -27.492925 0.000021 0.000066 -400.430054 -28.792857 -14.990337 -12.824144 0.000034 -136.226974 -59.031677 -0.000003 -0.000002 -0.000001 
-86.113747 -132.419632 718.031006 0.255880 17.028097 -0.073919 -0.000010 -0.000081 277.694702 -4.956746 -13.889418 -4.956045 0.000017 -0.000018 221.388184 4.211849 5.237659 -3.432731 0.000027 -18.163591 140.767944 5.094024 2.896123 4.560931 36.576694 4.801211 178.758911 -0.152419 -6.870065 -21.947906 130.515945 -0.000017 -0.000084 -7.535691 -13.446984 8.741483 255.921021 -0.000000 -0.000003 -3.684081 -12.386318 -3.436388 237.844955 0.000027 0.000017 18.997222 -12.630719 -0.835800 -36.072102 4.801231 178.759003 -6.845990 -1.757723 16.500926 -130.516083 -0.000030 -0.000037 19.950335 14.225316 -13.132122 -255.920975 -0.000052 0.000105 77.029453 40.831909 44.600121 -237.845154 0.000131 0.000020 2.112979 6.604474 33.734424 90.817993 -0.000004 -0.000008 13.111017 -39.724384 -24.344374 -0.000024 0.000034 -381.949005 10.978608 40.629223 9.992793 0.000006 0.000020 -400.429962 18.212997 -2.716704 7.507817 -0.000002 -136.226944 -59.031670 -0.000001 -0.000002 -0.000001 -90.818008 -0.000031 -0.000061 9.291188 -29.819021 36.156467 -0.000013 0.000062 -381.949036 -11.812286 41.507128 -27.292862 -0.000002 0.000017 -400.430054 -28.855480 -15.017534 -12.791833 0.000030 -136.226974 -59.031677 0.000004 -0.000001 -0.000001 
-86.126511 -132.366455 717.980652 0.326131 17.044314 0.030460 0.000006 -0.000005 277.694763 -4.976980 -13.901947 -4.962433 0.000006 -0.000018 221.387970 4.181611 5.253115 -3.561463 0.000004 -18.163610 140.768036 5.077434 2.867496 4.591928 36.576687 4.801235 178.759094 -0.198168 -6.825157 -21.932475 130.515945 0.000001 -0.000059 -7.441744 -13.493351 8.869311 255.921036 -0.000035 -0.000071 -4.422737 -12.737487 -4.068616 237.844925 -0.000025 -0.000039 19.278470 -13.009981 -0.720782 -36.072102 4.801222 178.758987 -6.711855 -1.807587 16.441189 -130.515991 -0.000030 0.000051 20.196839 14.592265 -13.678703 -255.920975 0.000067 -0.000043 76.342042 40.442045 45.000684 -237.845215 0.000002 0.000105 1.956412 6.146702 33.729113 90.818001 0.000027 0.000099 12.893932 -39.831420 -24.554352 -0.000017 0.000040 -381.949005 10.902172 40.732916 10.073808 0.000021 0.000020 -400.429932 18.256947 -2.742734 7.477401 0.000033 -136.226944 -59.031673 0.000001 -0.000001 -0.000002 -90.818001 -0.000008 0.000031 9.249319 -29.834546 36.002545 0.000002 0.000055 -381.948975 -11.670650 41.442221 -27.328890 0.000003 0.000043 -400.430054 -29.067680 -15.008938 -12.727373 0.000049 -136.226990 -59.031677 0.000004 -0.000001 -0.000001 
-86.088768 -132.234497 717.895691 0.393376 17.045063 0.126223 0.000002 -0.000051 277.694611 -5.008153 -13.881222 -5.004435 -0.000015 -0.000029 221.388062 4.152963 5.202570 -3.580223 0.000015 -18.163643 140.768005 5.041673 2.918454 4.508345 36.576679 4.801214 178.759033 -0.291738 -6.813511 -21.884908 130.516052 0.000009 0.000082 -7.257316 -13.625009 9.027095 255.921021 0.000022 0.000024 -5.242888 -13.035184 -4.714232 237.844925 0.000009 -0.000044 19.439864 -13.338363 -0.557625 -36.072132 4.801220 178.759064 -6.614081 -1.859110 16.447939 -130.516006 -0.000040 0.000059 20.436454 14.819835 -14.329329 -255.920929 -0.000088 -0.000095 76.115867 39.927824 45.071281 -237.845154 0.000037 0.000139 2.018401 5.587691 33.501771 90.818008 -0.000004 -0.000027 12.710903 -39.937776 -24.732916 -0.000001 0.000068 -381.949005 10.845536 40.848298 10.123515 -0.000017 0.000051 -400.430054 18.272921 -2.783569 7.425325 0.000017 -136.226959 -59.031673 0.000003 0.000000 -0.000002 -90.817993 -0.000021 0.000000 9.255667 -29.861331 35.872707 -0.000006 0.000047 -381.949097 -11.585132 41.455792 -27.298359 -0.000001 0.000074 -400.430084 -29.231007 -14.971088 -12.682159 0.000003 -136.226959 -59.031734 -0.000002 -0.000001 0.000001 
-85.997612 -132.094009 717.768005 0.472143 17.042384 0.256383 -0.000004 -0.000081 277.694733 -5.042376 -13.834271 -5.049755 0.000015 -0.000006 221.387878 4.114333 5.136464 -3.636585 -0.000002 -18.163551 140.768005 5.001069 2.946425 4.432254 36.576702 4.801247 178.758942 -0.268697 -6.774725 -21.816355 130.516022 -0.000021 0.000044 -7.207247 -13.802746 9.172217 255.921051 0.000026 -0.000089 -6.146548 -13.338706 -5.461826 237.845001 -0.000066 -0.000143 19.620859 -13.696116 -0.429295 -36.072109 4.801231 178.758865 -6.459365 -1.930162 16.422000 -130.515976 -0.000012 -0.000120 20.713957 15.012995 -14.997798 -255.920944 0.000014 0.000072 75.738315 39.435883 45.133084 -237.845078 0.000054 0.000003 1.732678 5.082024 33.416055 90.817993 -0.000027 0.000004 12.516715 -40.080728 -24.939553 -0.000009 0.000116 -381.949005 10.758695 41.000533 10.176704 -0.000017 0.000047 -400.429932 18.302981 -2.860136 7.382165 0.000034 -136.226974 -59.031677 0.000001 0.000001 -0.000001 -90.818001 -0.000026 0.000034 9.209675 -29.874383 35.697915 0.000017 0.000062 -381.949036 -11.570004 41.453385 -27.241868 -0.000016 0.000066 -400.430115 -29.346690 -14.931171 -12.587160 0.000040 -136.226959 -59.031612 0.000001 -0.000000 0.000001 
